<?xml version="1.0" encoding="UTF-8"?><svg id="uuid-8338ae4c-3656-43e8-a270-64070fbc3484" xmlns="http://www.w3.org/2000/svg" viewBox="0 0 432 137.5">
<title>BingX logo - Brandlogos.net</title><path d="M115.57,24.75c6.82,0,12.38-5.56,12.38-12.38S122.38,0,115.57,0s-12.38,5.56-12.38,12.38,5.56,12.38,12.38,12.38ZM88.01,43.4c.25,6.54-2.03,12.93-6.38,17.82v.06c3.41,2.31,11.88,8.63,11.88,20.79,0,13.91-11.38,25.24-25.36,25.24H0V19.31h62.1c13.64,0,25.25,10.56,25.91,24.09h0ZM65.95,45.15c0-6.16-5.11-8.91-10.94-8.91H22v17.54h33c5.72,0,10.89-2.53,10.94-8.63ZM21.89,70.73l.11,19.64v-.06h38.5c5.67,0,10.89-3.68,11-9.79,0-6.16-5.17-9.79-11-9.79,0,0-38.62,0-38.62,0ZM104.57,30.25h22v77.01h-22V30.25ZM222.77,66.39c0-20.13-13.75-32.95-30.25-35.64-2.11-.31-4.25-.48-6.38-.5-7.09,0-15.51,1.32-23.87,5.5v-5.5h-22v77.01h22v-38.62c0-15.45,9.02-21.01,19.25-21.01,11,0,19.25,7.27,19.25,21.02v38.61h22s0-40.87,0-40.87ZM381.34,47.14c-17.16-18.76-39.06-22.39-51.26-22.39v22.83c9.02,0,25.3,2.81,37.24,18.37-11.93,15.57-28.22,18.37-37.24,18.37v22.82c12.22,0,34.11-3.63,51.27-22.39,17.76,18.87,38,22.39,50.66,22.39v-22.83c-8.63,0-23.49-2.2-36.8-18.37,13.31-16.17,28.22-18.37,36.8-18.37v-22.82c-12.65,0-32.89,3.52-50.66,22.39ZM297.02,35.92v-5.67h21.94v67.61c0,12.32-6.33,39.65-45.15,39.65-19.47,0-35.53-8.02-42.85-19.19l16.5-11.06c3.3,4.51,11.99,11,24.75,11,20.13,0,24.75-13.85,24.75-20.4-6.05,4.29-14.52,6.65-25.41,6.65-21.07,0-40.54-17.21-40.54-39.21s19.64-35.04,40.59-35.04c12.7,0,22.22,4.13,25.41,5.67ZM253.02,66.45c0,10.39,9.84,18.81,22,18.81s22-8.42,22-18.81-9.85-18.82-22-18.82-22,8.42-22,18.82Z" style="fill:#0f5fff; fill-rule:evenodd;"/></svg>